<?xml version="1.0" encoding="utf-8"?>
<!-- Generator: Adobe Illustrator 28.1.0, SVG Export Plug-In . SVG Version: 6.00 Build 0)  -->
<svg version="1.1" id="Layer_1" xmlns="http://www.w3.org/2000/svg" xmlns:xlink="http://www.w3.org/1999/xlink" x="0px" y="0px"
	 viewBox="0 0 4500 4507.4" style="enable-background:new 0 0 4500 4507.4;" xml:space="preserve">
<style type="text/css">
	.st0{display:none;fill:#042B41;}
	.st1{filter:url(#Adobe_OpacityMaskFilter);}
	.st2{fill:#FCFCFD;}
	.st3{mask:url(#SVGID_1_);}
	.st4{fill:#FDFDFD;}
	.st5{fill:#FDFDFE;}
	.st6{fill:#FCFCFC;}
	.st7{fill:#DE4043;}
	.st8{fill:#072B41;}
</style>
<g>
	<path class="st0" d="M5503.4,2253.7c0,1075-0.1,2149.9,0.6,3224.9c0,23.8-5.4,29.2-29.2,29.2c-2149.9-0.6-4299.8-0.6-6449.7,0
		c-23.8,0-29.2-5.4-29.2-29.2c0.6-2149.9,0.6-4299.8,0-6449.7c0-23.8,5.4-29.2,29.2-29.2c2149.9,0.6,4299.8,0.6,6449.7,0
		c23.8,0,29.2,5.4,29.2,29.2C5503.4,103.8,5503.4,1178.7,5503.4,2253.7z"/>
	<defs>
		<filter id="Adobe_OpacityMaskFilter" filterUnits="userSpaceOnUse" x="291.6" y="659.7" width="3926.8" height="3182.1">
			<feFlood  style="flood-color:white;flood-opacity:1" result="back"/>
			<feBlend  in="SourceGraphic" in2="back" mode="normal"/>
		</filter>
	</defs>
	<mask maskUnits="userSpaceOnUse" x="291.6" y="659.7" width="3926.8" height="3182.1" id="SVGID_1_">
		<g class="st1">
			<path class="st2" d="M2404.5,2659.8c-5.1-48.5-23.3-87.8-47.6-123.8c-25.5-37.8-26.4-74.4-3.5-112.9
				c6.5-10.9,11.3-22.8,17.6-33.8c37.7-65,34.2-129.1-3.6-192.6c-6-10-11.4-20.4-17.8-30c-20.2-30.5-20.1-61.4-3.2-93
				c9-16.8,17.6-33.8,27.1-50.3c34.2-59.4,38.8-122.2-0.9-177.2c-47.9-66.3-42.1-123.8,0.6-188.5c39.2-59.5,32.5-122.8-3.8-183
				c-8.2-13.6-16.6-27.1-25.6-40.2c-24.4-35.4-26.1-72.8-2-107c47.5-67.5,58.2-141.3,46.7-220.7c-9.5-65.4,17.1-118.2,61-163.2
				c71-72.7,160-111.1,259.2-122.4c235.6-26.8,440.6,33.7,588.5,229.1c191.8,253.6,164.6,615.3-62,839.4
				c-170.1,168.2-349.6,326.5-525.3,488.8C2609.7,2471,2509.3,2563.3,2404.5,2659.8z"/>
			<path d="M538.1,3453.4c-30.3,0-51.5-1-72.6,0.3c-17.2,1.1-21.4-5.9-21.2-21.9c0.6-62.4,0.1-124.8,0-187.2c0-9.7-1-19.4,13.7-19
				c54.8,1.5,110.1-6.4,164.2,7.3c57.3,14.5,81.7,50.9,78.9,116.3c-2.4,57.1-30.9,89.5-86.8,100.3
				C586,3455,557.4,3452.6,538.1,3453.4z"/>
			<path d="M1597.9,3510.8c-36.9,0-73.8-0.1-110.7,0.1c-12.2,0.1-19.6-1.5-17.5-17.6c7.4-57.3,59.5-104.8,119.6-107.5
				c75.3-3.3,125.8,30.6,139.1,92.2c4.9,22.8,3.2,35.6-26,33.4C1667.7,3508.9,1632.7,3510.9,1597.9,3510.8z"/>
			<path d="M3948.4,3511.3c-35.9,0-71.8,0.2-107.7-0.1c-10-0.1-21.3,2.9-19.8-15.4c5.1-58.9,60.1-108.9,123.6-110.6
				c75.2-2,124.8,36.2,134.5,101.6c3.1,20.7-3.6,25.7-23.1,25c-35.8-1.3-71.8-0.4-107.7-0.4
				C3948.4,3511.4,3948.4,3511.3,3948.4,3511.3z"/>
		</g>
	</mask>
	<g class="st3">
		<path class="st4" d="M2263.8,940.2c93.8-147.4,231-225.7,393.3-261.8c324.8-72.3,666.1,88.2,820.8,382.6
			c159.3,303,112.3,656.3-124.3,913.4c-104.8,113.8-224.9,211.9-338.5,316.6c-242,223.2-485.3,445.1-727.9,667.6
			c-34.5,31.7-45.4,31.4-87.9-7.3c-119.8-109-239.5-218.1-359-327.5c-213.1-195.2-426.2-390.5-638.8-586.3
			c-166.2-153-262.7-340.3-275.1-567.9c-17.6-324.1,179.7-635.1,482.8-751.3c263.6-101.1,513-73.8,740.2,101.4
			C2193,853.3,2228.5,895.5,2263.8,940.2z"/>
		<path class="st4" d="M292.4,3460c0-111.2,0.6-222.3-0.5-333.5c-0.2-21.5,4.4-29.2,27.5-28.5c106.8,3.2,214-5.7,320.5,5.9
			c178,19.3,273.4,192.2,197.3,355.6c-27.9,59.9-77.4,93.1-140.3,109.1c-74,18.8-149.5,13-224.4,13.1c-23.2,0-30.9,4.9-30.1,29.5
			c1.9,62.4-0.2,124.9,1.1,187.4c0.4,21.1-3.7,30.8-27.4,29.4c-32.7-2-65.7-2.1-98.4-0.4c-22.1,1.1-25.9-7.8-25.8-27.6
			c0.8-113.3,0.4-226.6,0.4-339.9C292.2,3460,292.3,3460,292.4,3460z"/>
		<path class="st2" d="M1662.8,3607.3c-59.2,0-118.5,0.6-177.7-0.4c-18.9-0.3-23.7,4.3-18.4,23.3c14.9,53.6,60,92,119.8,98.4
			c62.3,6.7,120.3-6.6,171.5-43c16.4-11.7,24.7-9.8,35,5.8c11.1,16.7,22.8,33.4,36.8,47.6c13.3,13.4,12.7,20.9-2.9,31.2
			c-106.1,69.9-220.3,92.3-341.5,50.4c-108.6-37.6-157.3-122.3-166-232.9c-10.5-133.9,51.6-246.4,163-287.4
			c86.8-32,175.3-29.5,259.3,11.1c86.8,41.9,117.3,121.1,126,210.3c8.4,85.5,6.7,85.7-77.9,85.7
			C1747.5,3607.3,1705.2,3607.3,1662.8,3607.3z"/>
		<path class="st4" d="M4013,3607.6c-58.2,0-116.5,0.9-174.7-0.4c-21.9-0.5-25.3,6.3-18.7,25.6c18.5,54.2,55.2,87.1,111.9,95.3
			c64.7,9.4,125-4.6,177.2-43.8c18.4-13.8,26-9,37.1,6c11.9,16.2,24.8,31.8,38.6,46.3c10,10.6,11.7,16.9-0.8,27.6
			c-93.2,79.6-265.9,101.1-375.3,45.1c-78-39.9-118.3-106.7-131.3-191c-8.8-57.3-4.5-114.1,15.1-169.1
			c27.3-76.4,77.6-130,156.5-154.3c72.2-22.2,144.2-20.6,215.3,3.8c79.2,27.2,123.7,85.6,142.9,165.1c9,37.2,11.9,75,11.5,113.4
			c-0.2,22.9-6.2,31.6-30.7,30.8c-58.2-1.8-116.4-0.6-174.7-0.6C4013,3607.5,4013,3607.6,4013,3607.6z"/>
		<path class="st4" d="M3401.2,3280.8c61.1,1.4,112.9,10.3,163.4,28c22.2,7.8,31.8,16.9,18.6,40.8c-10.2,18.4-18,38.4-24.5,58.5
			c-6.1,18.8-13.7,22.8-31.9,12.9c-42.7-23.3-88.9-33.6-137.8-29.5c-34.7,2.9-56.2,18.8-57.6,43.8c-1.8,30.5,20.2,42.8,44,50.6
			c38.2,12.5,77.5,21.7,115.6,34.6c77,26,110.7,69.1,112.1,139.8c1.5,79.1-33.8,136.5-107.7,162.2
			c-105.5,36.6-206.5,16.8-303.2-33.6c-12.3-6.4-16.5-14-7.9-27.7c13.5-21.5,25.9-43.8,37.1-66.5c7.8-15.8,14.9-15.9,28.3-5.9
			c47.5,35.5,102.7,43.1,159.9,39.6c25.4-1.5,49.1-10,54.3-39.4c5.4-30.2-14.7-45.4-39.1-53.5c-38.1-12.7-77.4-21.7-115.7-34
			c-102.5-33-144-117.6-104.8-217.3c28.2-71.6,91.4-92.1,160.2-101.3C3379.2,3280.7,3394.2,3281.1,3401.2,3280.8z"/>
		<path class="st5" d="M1956.6,3562.3c0-168,112.2-281.5,280.1-283.3c71.2-0.7,138.5,14.3,200.7,50.2c16.3,9.4,21.4,19.1,9.5,34.9
			c-2.5,3.4-4.1,7.4-6.2,11c-13.6,23.9-21.6,57-42.2,69.4c-24.4,14.7-42.1-23.1-66.8-31.7c-58.7-20.4-116.8-29.6-169.3,10.5
			c-56.8,43.4-64.7,107.2-56.6,172.6c11.7,94.2,78.8,142.9,172.6,129.2c28.5-4.1,55.8-11.9,80.9-26.5c35.7-20.7,35.8-20.6,59.8,15.1
			c4.1,6.1,8.4,12.2,12.6,18.3c30.4,44,30.7,44.5-17,67.8c-79.5,38.8-163,51.3-250.1,34.5
			C2034.8,3809.4,1956.5,3706.4,1956.6,3562.3z"/>
		<path class="st4" d="M2680.7,3372.8c37-57.9,84.3-83.5,144.2-87c21.5-1.3,34.2,1,27.8,28.6c-8.1,34.9-12.7,70.7-17.7,106.3
			c-2.4,17.2-9.6,22.8-27.4,20.5c-82.7-10.7-121.5,38.3-124.9,118.4c-3.3,79.2-2.1,158.6-0.3,237.8c0.6,26.1-7.7,32.4-32,30.8
			c-31.6-2.1-63.4-1.6-95.1-0.7c-15.4,0.4-19.9-4.8-19.8-19.9c0.6-164.9,0.7-329.9,0.4-494.8c0-15.1,4.6-20.7,19.9-20.1
			c25.3,1,50.8,1.7,76.1-0.1c24.5-1.8,37.8,5.8,39.3,31.9C2671.7,3337.9,2676.1,3350.9,2680.7,3372.8z"/>
		<path class="st4" d="M1096.3,3369.7c35.1-55.9,83.9-78.8,142.8-84.2c23-2.1,32.8,1.7,25.8,28.6c-9.1,34.7-13.8,70.6-19.6,106.1
			c-2.5,15-8,21.7-25,19.7c-83.4-9.8-119.6,38.8-122.8,113.5c-3.5,81.4-2.7,163-1.6,244.5c0.3,24.5-7.2,31.3-30.6,29.8
			c-30.6-2-61.4-1.6-92.1-0.8c-16.8,0.5-21.6-5.5-21.5-22c0.4-163.1,0.4-326.1-0.3-489.2c-0.1-17.1,5.6-22.8,21.8-21.3
			c9.4,0.9,19,0.1,28.6,0.1C1075.7,3294.6,1075.7,3294.6,1096.3,3369.7z"/>
		<path class="st6" d="M3081.3,3562.8c0,79.3-0.8,158.5,0.5,237.8c0.3,21.3-6.3,27.6-26.7,26.6c-32.7-1.5-65.5-1.4-98.3-0.8
			c-15.1,0.3-19.9-5.1-19.9-20.2c0.6-164.9,0.7-329.7,0.4-494.6c0-15.8,6.3-19.9,20.7-19.5c32.7,0.9,65.5,1.8,98.3,0.7
			c20-0.7,24.9,7.2,24.7,25.9c-0.8,81.4-0.3,162.7-0.3,244.1C3080.8,3562.8,3081.1,3562.8,3081.3,3562.8z"/>
		<path class="st6" d="M3010.3,3206.5c-53.8,0-78.8-24.6-78.3-76.9c0.5-55.3,25.6-81.5,78.3-81.9c58.3-0.4,80.5,21.9,80.2,80.7
			C3090.1,3184.4,3067.5,3206.5,3010.3,3206.5z"/>
		<path class="st7" d="M2236.4,2873.1c-63.4-57.4-120.7-108.8-177.5-160.8c-256.8-235.3-513.3-470.9-770.1-706.1
			c-96.1-88-180.8-184-230.6-307c-165.7-409,76.7-864.6,507.7-941.5c261.4-46.7,483.8,28,649.2,245.1c14.2,18.6,24.2,36.9,18,61
			c-1.3,5-1.1,10.6-0.6,15.8c7.1,74.3-5.4,141.8-44.9,208.6c-36.9,62.5-27,133.1,7.1,197.9c7.4,14,15.2,28.3,25.4,40.2
			c25.5,30,22.5,58.9,1.8,89.8c-24.9,37.3-44.7,76.7-47.1,123c-2.6,52.6,6.5,102.6,40.4,143.4c30.5,36.7,28,68.8,2.3,105.9
			c-37.9,54.5-53.1,114.7-37.1,180.9c7.1,29.2,18,57.3,37.3,80c27.5,32.4,23.7,62.3,2,95.2c-24.1,36.5-42.5,75.5-44.5,120.6
			c-2.3,51.5,8.9,99.2,39,141.1c17,23.6,23.2,48.5,22.6,77.2C2235.5,2743.5,2236.4,2803.7,2236.4,2873.1z"/>
		<path class="st8" d="M2321.8,2804.4c0-21.3-1.1-40.4,0.2-59.3c4.9-68.9-1.8-133.8-41.6-194.4c-27.7-42.2-25.7-90.7-4.9-137.3
			c6.5-14.5,12.5-29.3,20.5-43c30.7-52.8,31.1-104.3-4.3-155.1c-43-61.5-41.6-124.2-5.6-188.3c8.8-15.7,16.4-32.1,23.8-48.4
			c16-35.2,15.2-69.7-5.2-103.3c-6.6-10.8-12.3-22.3-19-33c-33.9-54.2-36.1-109.3-5.4-165.6c6.1-11.2,11-23,17.4-33.9
			c30.9-53,30.3-104.4-6.9-154.4c-53.3-71.7-53.5-144.5-4.3-218.2c27-40.3,39.5-84.4,33-132.6c-20.1-149.3,57.7-244.4,177.6-311.7
			c166.3-93.4,343.7-101,523.2-47.7c255.4,75.9,437.6,303,462.8,572.7c23.1,246.6-59.3,453.7-241.7,620.8
			c-297.5,272.5-595.4,544.5-893.3,816.5C2341.3,2794.4,2335.8,2803,2321.8,2804.4z"/>
		<path class="st5" d="M1635.7,848.9c46.2-1.5,58.5,9.7,62.7,49.3c4.5,41.6-9.4,63.7-46.5,69.4c-133.8,20.4-237.9,89.3-320.1,194.2
			c-41.1,52.5-67.7,111.9-80.7,177.5c-8.5,43-46.6,64.2-88.4,50.5c-18.9-6.2-25.7-21-26.4-39.2c-1.1-28.8,2.5-57.5,11.3-84.6
			c72.2-221.7,221.6-359.9,449.3-412.1C1612.3,850.3,1628.3,849.8,1635.7,848.9z"/>
	</g>
</g>
</svg>
